<?xml version="1.0" encoding="UTF-8"?>
<svg width="800" height="600" viewBox="0 0 800 600" xmlns="http://www.w3.org/2000/svg">
  <defs>
    <linearGradient id="gradient1" x1="0%" y1="0%" x2="100%" y2="100%">
      <stop offset="0%" style="stop-color:#6366f1;stop-opacity:0.2" />
      <stop offset="100%" style="stop-color:#4f46e5;stop-opacity:0.1" />
    </linearGradient>
    <linearGradient id="gradient2" x1="0%" y1="0%" x2="100%" y2="100%">
      <stop offset="0%" style="stop-color:#a855f7;stop-opacity:0.2" />
      <stop offset="100%" style="stop-color:#8b5cf6;stop-opacity:0.1" />
    </linearGradient>
  </defs>
  
  <!-- Background pattern -->
  <rect width="100%" height="100%" fill="#ffffff" />
  
  <!-- Abstract background shapes -->
  <circle cx="100" cy="150" r="180" fill="url(#gradient1)" />
  <circle cx="700" cy="500" r="200" fill="url(#gradient2)" />
  
  <!-- Mind and wellness symbols -->
  <!-- Brain icon -->
  <path d="M420 180 C460 160, 470 120, 450 90 C430 60, 390 60, 370 90 C350 60, 310 60, 290 90 C270 120, 280 160, 320 180 L320 250 C320 270, 340 290, 370 290 C400 290, 420 270, 420 250 L420 180Z" fill="#f0f0f0" stroke="#6366f1" stroke-width="2" />
  
  <!-- Heart icon -->
  <path d="M200 350 C200 300, 250 300, 270 330 C290 300, 340 300, 340 350 C340 400, 270 440, 270 440 C270 440, 200 400, 200 350Z" fill="#f0f0f0" stroke="#a855f7" stroke-width="2" />
  
  <!-- Meditation figure -->
  <ellipse cx="500" cy="350" rx="30" ry="30" fill="#f0f0f0" stroke="#6366f1" stroke-width="2" />
  <path d="M500 380 L500 420" stroke="#6366f1" stroke-width="2" />
  <path d="M470 440 L500 420 L530 440" stroke="#6366f1" stroke-width="2" />
  <path d="M460 400 L500 380 L540 400" stroke="#6366f1" stroke-width="2" />
  
  <!-- Connection lines representing mental health support -->
  <path d="M270 380 Q350 320, 460 380" stroke="#8b5cf6" stroke-width="1" stroke-dasharray="4" fill="none" />
  <path d="M370 240 Q430 300, 500 330" stroke="#6366f1" stroke-width="1" stroke-dasharray="4" fill="none" />
  
  <!-- Decorative patterns -->
  <circle cx="200" cy="200" r="5" fill="#6366f1" />
  <circle cx="220" cy="230" r="3" fill="#6366f1" />
  <circle cx="180" cy="240" r="4" fill="#6366f1" />
  
  <circle cx="600" cy="300" r="5" fill="#a855f7" />
  <circle cx="580" cy="330" r="3" fill="#a855f7" />
  <circle cx="620" cy="340" r="4" fill="#a855f7" />
  
  <!-- Small plus signs representing health -->
  <path d="M150 100 L150 120 M140 110 L160 110" stroke="#6366f1" stroke-width="2" />
  <path d="M650 150 L650 170 M640 160 L660 160" stroke="#a855f7" stroke-width="2" />
  <path d="M700 400 L700 420 M690 410 L710 410" stroke="#6366f1" stroke-width="2" />
  <path d="M100 450 L100 470 M90 460 L110 460" stroke="#a855f7" stroke-width="2" />
</svg>